<svg id="icon_unlocked" data-name="icon unlocked" xmlns="http://www.w3.org/2000/svg" width="20" height="20" viewBox="0 0 20 20">
  <rect id="Rectangle_2051" data-name="Rectangle 2051" width="20" height="20" fill="red" opacity="0"/>
  <g id="Group_4301" data-name="Group 4301" transform="translate(4 2)">
    <path id="Path_4718" data-name="Path 4718" d="M12.008,7.51H3.261v-2a3.1,3.1,0,0,1,6.12-.723,1.206,1.206,0,1,0,2.345-.562A5.514,5.514,0,0,0,.851,5.51v2H.723A.72.72,0,0,0,0,8.233v7.044A.72.72,0,0,0,.723,16H12a.72.72,0,0,0,.723-.723V8.233A.72.72,0,0,0,12,7.51Z" transform="translate(0 0)" fill="#fff"/>
  </g>
</svg>
